<svg viewBox="0 0 280 80" version="1.1" xmlns="http://www.w3.org/2000/svg" data-sanitized-data-name="Layer 1" data-name="Layer 1" id="Layer_1">
  <defs>
    <style>
      .cls-1 {
        fill: #fff;
        stroke-width: 0px;
      }
    </style>
  </defs>
  <g>
    <g>
      <polygon points="11.86 21.31 20.05 27.88 55.44 27.88 63.62 21.39 63.62 27.88 37.73 39.1 11.86 27.84 11.86 21.31" class="cls-1"></polygon>
      <polygon points="20.75 32.61 37.81 43.08 54.73 32.61 37.82 63.36 20.75 32.61" class="cls-1"></polygon>
    </g>
    <g>
      <path d="M67.86,52.99v-20.36h12.52c3.38,0,6.13.95,8.17,2.82,2.03,1.86,3.06,4.29,3.06,7.21,0,2.66-1.09,5.26-3.24,7.71-.59.69-1.54,1.29-2.84,1.79-1.44.55-2.95.83-4.5.83h-13.16ZM71.08,49.95h10.2c1.98,0,3.62-.67,4.9-1.99,1.27-1.32,1.91-3.01,1.91-5.03,0-2.16-.68-3.93-2.03-5.26-1.35-1.33-3.16-2-5.39-2h-9.58v14.28Z" class="cls-1"></path>
      <polygon points="94.88 52.99 94.88 32.63 114.84 32.63 114.84 35.67 98.1 35.67 98.1 40.86 109.75 40.86 109.75 43.9 98.1 43.9 98.1 49.95 115.58 49.95 115.58 52.99 94.88 52.99" class="cls-1"></polygon>
      <path d="M130.31,53.54c-3.86,0-7.02-1.03-9.39-3.05-2.35-2.01-3.55-4.62-3.55-7.76s1.36-5.98,4.04-8.04c2.34-1.81,5.26-2.73,8.67-2.73,4.65,0,8.47,1.77,11.37,5.27l-2.92,1.07c-2.16-2.19-4.91-3.3-8.18-3.3-2.88,0-5.22.72-6.95,2.14-1.75,1.43-2.64,3.31-2.64,5.59s.89,4.25,2.64,5.67c1.73,1.4,4.09,2.12,7.01,2.12,3.3,0,6.04-1.12,8.16-3.33l2.76,1.56c-2.82,3.19-6.52,4.81-11.01,4.81Z" class="cls-1"></path>
      <rect height="20.36" width="3.22" y="32.63" x="145.74" class="cls-1"></rect>
      <path d="M153.18,52.99v-20.36h16c2.02,0,3.61.51,4.75,1.52,1.14,1.02,1.7,2.32,1.7,3.99s-.72,3-2.22,4.04l-.43.3.46.25c2.01,1.09,2.99,2.69,2.99,4.91,0,3.6-2.44,5.35-7.45,5.35h-15.81ZM156.4,49.95h12.59c1.28,0,2.3-.24,3.03-.71.77-.5,1.16-1.19,1.16-2.04,0-1.36-.67-2.99-3.87-2.99h-12.91v5.74ZM156.4,41.17h12.84c.98,0,1.77-.25,2.36-.75.6-.51.91-1.2.91-2.05,0-1.23-.54-2.7-3.13-2.7h-12.97v5.5Z" class="cls-1"></path>
      <path d="M190.8,53.6c-3.45,0-6.22-.69-8.24-2.05-2.01-1.35-2.99-3.03-2.99-5.14v-13.78h3.22v12.96c0,3.3,2.69,4.97,8,4.97s7.97-1.67,7.97-4.97v-12.96h3.22v13.78c0,2.11-.98,3.8-2.99,5.14-2.02,1.36-4.78,2.05-8.21,2.05Z" class="cls-1"></path>
      <polygon points="205.99 52.99 205.99 32.63 209.22 32.63 209.22 49.95 222.41 49.95 222.41 52.99 205.99 52.99" class="cls-1"></polygon>
      <polygon points="225.19 52.99 225.19 32.63 228.42 32.63 228.42 49.95 241.61 49.95 241.61 52.99 225.19 52.99" class="cls-1"></polygon>
      <polygon points="244.41 52.99 244.41 49.77 260.84 35.67 244.64 35.67 244.64 32.63 265.19 32.63 265.19 35.87 248.78 49.91 265.93 49.95 265.93 52.99 244.41 52.99" class="cls-1"></polygon>
    </g>
  </g>
  <path d="M268.86,33.8c0,.68-.53,1.22-1.23,1.22s-1.24-.53-1.24-1.22.55-1.2,1.24-1.2,1.23.53,1.23,1.2ZM266.7,33.8c0,.53.4.96.94.96s.92-.42.92-.95-.39-.97-.92-.97-.93.43-.93.96ZM267.44,34.42h-.28v-1.2c.11-.02.26-.04.46-.04.23,0,.33.04.42.09.07.05.12.15.12.26,0,.13-.1.23-.25.28h0c.12.06.18.15.22.31.04.18.06.26.09.3h-.3s-.06-.15-.1-.29c-.02-.13-.09-.19-.25-.19h-.13v.48ZM267.45,33.74h.13c.15,0,.28-.05.28-.18,0-.11-.08-.18-.26-.18-.07,0-.12,0-.15.01v.34Z" class="cls-1"></path>
</svg>