<?xml version="1.0" encoding="utf-8"?>
<!-- Generator: Adobe Illustrator 27.9.0, SVG Export Plug-In . SVG Version: 6.00 Build 0)  -->
<svg version="1.1" id="Layer_1" xmlns="http://www.w3.org/2000/svg" xmlns:xlink="http://www.w3.org/1999/xlink" x="0px" y="0px"
	 viewBox="0 0 24 24" style="enable-background:new 0 0 24 24;" xml:space="preserve">
<g>
	<path d="M21.6,22c-0.1-0.3-0.3-0.7-0.4-1c-0.5-1.1-1.1-1.4-2.2-1.8c-0.8-0.3-1.6-0.7-2.2-0.9c-0.9-0.4-1.1-0.6-1.7-1.5c0,0,0,0,0,0
		c0,0,0,0,0,0c0,0,0,0,0,0c-0.2-0.4-0.3-1-0.3-1.5c0-0.1,0-0.3,0-0.4c0,0,0,0,0,0c0-0.2,0-0.4,0-0.6c0.1-0.2,0.1-0.4,0.2-0.6
		c0.1-0.4,0.2-0.7,0.2-0.7s0.1,0.1,0.2,0.1c0.3,0,0.3-0.3,0.4-0.6c0.2-0.3,0.2-0.6,0.2-1.1c0-0.6,0.1-1.1-0.3-0.9c0,0,0,0,0,0
		c0,0-0.1,0-0.1,0.1c0,0,0-0.1,0.1-0.3c0.1-0.5,0.1-1.3,0.1-1.7c0-0.3,0-0.9,0-0.9c-0.2-1.9-1.9-3-3.9-3c0,0,0,0,0,0c0,0,0,0,0,0
		c-2,0-3.7,1.1-3.9,3c0,0,0,0.6,0,0.9C8,9,8,9.7,8,10.2c0,0.3,0.1,0.3,0.1,0.4c-0.6-0.5-0.5,0.2-0.5,0.9c0,0.6,0.1,0.7,0.2,1
		C8,12.8,8,13.1,8.4,13.1c0.1,0,0.2,0,0.2-0.1c0.1,0.1,0.3,0.9,0.4,1.3c0.1,0.7,0.1,2-0.3,2.5c-0.6,0.8-0.8,1-1.7,1.5c0,0,0,0,0,0
		c-0.6,0.3-1.3,0.6-2.2,0.9C3.8,19.6,3.2,20,2.6,21c-0.1,0.3-0.3,0.7-0.4,1H21.6z"/>
	<g>
		<g>
			<path d="M1.1,11C1,11,1,11,1.1,11c-0.2,0-0.3-0.1-0.3-0.3c0-0.2,0.1-0.3,0.3-0.3l0,0c0,0,0.7,0,1.7-0.2c0.8-0.2,2.1-0.7,3-1.7
				C7,7.1,7.5,5,7.3,2.3C7.3,2.1,7.4,2,7.6,2c0.2,0,0.3,0.1,0.3,0.3c0.3,2.9-0.3,5.1-1.7,6.6c-0.5,0.5-1,0.9-1.7,1.3
				c-0.5,0.3-1.1,0.5-1.7,0.6C1.9,11,1.2,11,1.1,11z"/>
		</g>
		<g>
			<path d="M1.4,9.2C1.4,9.2,1.4,9.2,1.4,9.2c-0.2,0-0.3-0.1-0.3-0.3c0-0.2,0.1-0.3,0.3-0.3l0,0c0,0,0.5,0,1.1-0.2
				C3.1,8.3,3.9,8,4.6,7.3c0.9-1,1.3-2.4,1.1-4.3c0-0.2,0.1-0.3,0.3-0.3c0.2,0,0.3,0.1,0.3,0.3C6.5,5,6,6.6,5,7.7
				C4.4,8.3,3.6,8.8,2.6,9C2,9.2,1.5,9.2,1.4,9.2z"/>
		</g>
		<g>
			<path d="M1.8,7.5C1.7,7.5,1.7,7.5,1.8,7.5c-0.2,0-0.3-0.1-0.3-0.3c0-0.2,0.1-0.3,0.3-0.3c0,0,1.1,0,1.8-0.8
				C4,5.6,4.2,4.8,4.1,3.7c0-0.2,0.1-0.3,0.3-0.3c0.2,0,0.3,0.1,0.3,0.3C4.8,4.9,4.6,5.9,4,6.6C3.1,7.5,1.9,7.5,1.8,7.5z"/>
		</g>
	</g>
	<g>
		<g>
			<path d="M22.8,11c-0.2,0-0.9,0-1.8-0.2c-0.6-0.1-1.1-0.4-1.7-0.6c-0.6-0.3-1.2-0.8-1.7-1.3c-1.4-1.5-2-3.8-1.7-6.6
				C16,2.1,16.1,2,16.3,2c0.2,0,0.3,0.2,0.3,0.3c-0.3,2.7,0.3,4.8,1.6,6.2c1,1,2.2,1.5,3,1.7c0.9,0.2,1.6,0.2,1.7,0.2c0,0,0,0,0,0
				c0.2,0,0.3,0.1,0.3,0.3C23.1,10.9,23,11,22.8,11C22.8,11,22.8,11,22.8,11z"/>
		</g>
		<g>
			<path d="M22.4,9.2c-0.1,0-0.6,0-1.3-0.2c-1-0.2-1.8-0.7-2.4-1.4c-1-1.1-1.4-2.7-1.2-4.7c0-0.2,0.2-0.3,0.3-0.3
				c0.2,0,0.3,0.2,0.3,0.3c-0.2,1.9,0.2,3.3,1.1,4.3c1.3,1.4,3.2,1.3,3.2,1.3c0.2,0,0.3,0.1,0.3,0.3C22.7,9.1,22.6,9.2,22.4,9.2
				C22.5,9.2,22.4,9.2,22.4,9.2z"/>
		</g>
		<g>
			<path d="M22.1,7.5c-0.2,0-1.4,0-2.2-0.9c-0.6-0.7-0.9-1.6-0.8-2.9c0-0.2,0.2-0.3,0.3-0.3c0.2,0,0.3,0.2,0.3,0.3
				c-0.1,1.1,0.1,1.9,0.6,2.4c0.7,0.8,1.8,0.8,1.8,0.8c0.2,0,0.3,0.1,0.3,0.3C22.4,7.4,22.2,7.5,22.1,7.5
				C22.1,7.5,22.1,7.5,22.1,7.5z"/>
		</g>
	</g>
</g>
</svg>
