<?xml version="1.0" encoding="utf-8"?>
<!-- Generator: Adobe Illustrator 27.4.0, SVG Export Plug-In . SVG Version: 6.00 Build 0)  -->
<svg version="1.1" id="Layer_1" xmlns="http://www.w3.org/2000/svg" xmlns:xlink="http://www.w3.org/1999/xlink" x="0px" y="0px"
	 viewBox="0 0 24 24" style="enable-background:new 0 0 24 24;" xml:space="preserve">
<style type="text/css">
	.st0{fill:#FFFFFF;}
</style>
<path d="M6,11.1c0-2.9,2-5.4,4.9-5.9c0.6-0.1,1,0.1,1,0.7C12,6.4,12,6.8,12,7.3c0,1.4,0.9,2.6,2.2,3.1c0.4,0.1,0.7,0.3,1,0.5
	c1.5,0.7,2.3,2.3,2,3.9c-0.2,1.7-1.5,2.9-3.2,3.2c-2.9,0.4-5.1-0.7-6.8-3C6.5,13.9,6,12.5,6,11.1z"/>
<path d="M7.8,20.5c1,0.6,2.2,0.9,3.4,1c3.9,0.2,7-1.3,8.8-4.8s1.5-7-0.9-10.2c-0.1-0.1-0.3-0.2-0.2-0.4c-0.1-0.3,0.1-0.6,0.2-0.8
	c0.2-0.1,0.5-0.1,0.7,0c0.3,0.2,0.6,0.6,0.8,0.9c2.4,3.7,2.6,7.6,0.4,11.5s-5.8,5.5-10.2,5c-1.1-0.2-2.3-0.5-3.3-0.9
	c-0.4-0.1-0.6-0.1-0.7,0.2c-0.2,0.3-0.4,0.6-0.6,0.9C6,23,5.8,23.1,5.7,23.1c-0.1-0.1-0.2-0.2-0.3-0.3c-0.2-1.2-0.4-2.3-0.6-3.4
	c0-0.1,0.2-0.4,0.4-0.4c1.1-0.2,2.2-0.4,3.3-0.5c0.2,0,0.3,0.1,0.4,0.2C9.1,18.7,9,18.9,9,19C8.6,19.5,8.2,19.9,7.8,20.5z"/>
<path d="M15,3.6c-1.3-0.5-2.6-0.7-4-0.5C5.9,3.6,2.2,8.2,2.8,13.3c0.2,1.5,0.7,2.9,1.5,4.1c0.1,0.1,0.1,0.2,0.2,0.2
	c0.2,0.2,0.2,0.7-0.1,0.9c0,0-0.1,0-0.1,0.1c-0.2,0.2-0.7,0.1-0.9-0.1c0,0,0-0.1-0.1-0.1c-0.5-0.8-1-1.6-1.3-2.5
	C0.6,11.8,1.4,8,4.4,4.9S11.1,1,15.3,2.2C15.6,2.4,16,2.3,16.1,2l0,0c0.2-0.4,0.6-0.8,0.9-1.1c0.1-0.1,0.3-0.2,0.4-0.2
	c0.1,0.1,0.2,0.2,0.3,0.4c0.2,1.1,0.4,2.2,0.6,3.4C18.2,4.8,18,4.9,17.7,5c-1,0.1-2.1,0.3-3.2,0.4c-0.2,0-0.4-0.1-0.5-0.2
	c-0.1-0.1,0-0.4,0.1-0.5C14.4,4.3,14.7,4,15,3.6z"/>
<polygon class="st0" points="10.7,15.4 11.5,15.2 13.2,13.1 13.2,12.3 13.6,12.7 13,14.7 11,15.7 "/>
<polygon class="st0" points="11.8,15.4 13.3,14.9 13.4,13.4 14.5,15.9 "/>
</svg>
