<svg role="presentation" fill="none" focusable="false" stroke-width="1.4" width="65" height="65" viewBox="0 0 24 24">
    <path d="M14.097 4.087c.466-1.317.985-2.602.985-2.602 1.536 1.093 2.908 2.708 3.42 5.005a1.41 1.41 0 0 1-.337 1.26c-1.595 1.732-3.588 2.445-5.464 2.623 0 0 .206-1.466.472-2.88l-1.514-.406a5.143 5.143 0 0 0-4.131.656l-.072.045.894-1.447a5.143 5.143 0 0 1 5.707-2.266l.04.012ZM4.248 16.149c-1.39-.112-2.769-.283-2.769-.283.66-1.766 1.864-3.508 3.948-4.598a1.41 1.41 0 0 1 1.307 0c2.086 1.09 3.29 2.832 3.948 4.598 0 0-1.468.181-2.904.291v1.565a5.143 5.143 0 0 0 1.702 3.823l.063.057-1.63-.489a5.143 5.143 0 0 1-3.665-4.925v-.043.004ZM20.357 18.679a71.67 71.67 0 0 1 1.522 2.33c-1.786.596-3.898.756-6.058-.18A1.41 1.41 0 0 1 15 19.814c-.463-2.308.135-4.34 1.094-5.963 0 0 1.064 1.029 2.052 2.076l1.217-.984a5.143 5.143 0 0 0 1.903-3.728l.005-.084.644 1.575a5.143 5.143 0 0 1-1.525 5.949l-.035.024h.002Z" fill-opacity="0" stroke="currentColor" stroke-linejoin="round"></path>
</svg>