<?xml version="1.0" encoding="utf-8"?>
<!-- Generator: Adobe Illustrator 27.4.0, SVG Export Plug-In . SVG Version: 6.00 Build 0)  -->
<svg version="1.1" id="Layer_1" xmlns="http://www.w3.org/2000/svg" xmlns:xlink="http://www.w3.org/1999/xlink" x="0px" y="0px"
	 viewBox="0 0 24 24" style="enable-background:new 0 0 24 24;" xml:space="preserve">
<style type="text/css">
	.st0{fill:#FFFFFF;}
</style>
<path d="M8.5,8.9c0.2,0,0.4,0,0.6,0.1c2.6,0.5,3.9,3,2.6,5.5c-0.6,1.1-1.6,1.9-2.8,2.2c-1.1,0.3-2.3-0.2-2.8-1.3
	c-0.5-1-0.1-2.2,0.8-2.8c0.3-0.2,0.5-0.6,0.5-1c0-1.1,0.1-2.1,0.2-3.2c0.4-2.1,1.8-3.3,3.7-3.5c2.3-0.2,4,0.8,4.8,2.8
	c0.2,0.6,0.4,1.2,0.5,1.8c0.1,0.3-0.1,0.7-0.4,0.6c-0.2,0-0.4-0.3-0.5-0.5c-0.1-0.4-0.2-0.8-0.3-1.2c-0.5-1.9-2.5-3-4.4-2.5
	c-0.1,0-0.1,0-0.2,0.1C9.4,6.4,8.8,7.5,8.5,8.9z"/>
<path d="M11.7,2c4.6-0.1,8.5,4.2,8.1,8.7c-0.3,3.1-1.8,5.3-4.5,6.7c-1.4,0.7-2.5,1.8-3.2,3.2c-0.7,1.7-2.4,2.8-4.2,2.8
	c-1.2,0-2.3-0.5-3-1.4c-0.1-0.1-0.1-0.5-0.1-0.7c0.2,0,0.5,0,0.7,0c0.1,0,0.1,0.1,0.2,0.1c1.8,1.5,4,1.2,5.3-0.7
	c0.1-0.2,0.2-0.4,0.3-0.6c0.6-1.6,1.9-2.6,3.4-3.5c0.2-0.1,0.4-0.2,0.5-0.3c2.8-1.6,4-4.4,3.5-7.6c-0.6-2.9-2.8-5.1-5.7-5.7
	c-2.9-0.4-5.7,1-7.1,3.5C5.4,7.8,5,9,4.7,10.3c-0.1,0.3-0.2,0.6-0.6,0.6c-0.2-0.1-0.4-0.3-0.5-0.6C4.2,6,6.3,3,10.8,2.1
	C11.1,2,11.4,2,11.7,2z"/>
<path d="M22.2,9.5c-0.1,0.1-0.3,0.4-0.5,0.4c-0.2-0.1-0.4-0.2-0.5-0.5c-0.3-0.9-0.4-1.9-0.7-2.8c-0.6-1.6-1.6-3.1-2.9-4.2
	c-0.3-0.2-0.5-0.5-0.2-0.8c0.3-0.3,0.6-0.2,0.9,0.1C20.5,3.7,21.8,6.3,22.2,9.5z"/>
<path d="M2.8,6.1c-0.5,0-0.7-0.4-0.6-0.7C2.5,4.9,2.7,4.5,3,4.1c1.1-1.7,2.7-3,4.6-3.7c0.3-0.1,0.7-0.2,0.8,0.2S8.2,1.2,7.9,1.3
	C5.8,2.1,4.2,3.7,3.2,5.7C3.2,5.9,3,6,2.8,6.1z"/>
<polygon class="st0" points="8,12.9 8.2,13.4 9.6,14.4 10.2,14.4 10,14.7 8.6,14.4 7.8,13.1 "/>
<polygon class="st0" points="8.1,13.6 8.5,14.5 9.5,14.6 7.9,15.4 "/>
</svg>
